# xmcd
#
# Track frame offsets:
#	150
#	19046
#	37770
#	60330
#	85055
#	106501
#	123520
#	142793
#	166234
#	185951
#	207099
#	226836
#	249085
#	266994
#
# Disc length: 3875 seconds
#
# Revision: 3
# Processed by: cddbd v1.5.2PL0 Copyright (c) Steve Scherf et al.
# Submitted via: EasyCDDAExtractor 15.3.0.1
#
DISCID=a70f210e
DTITLE=Alejandro Sanz - Grandes Exitos 91_04 - CD 3 - Rarezas
DYEAR=2004
DGENRE=Latin
TTITLE0=Corazon Partio (Demo)
TTITLE1=Es Algo Personal (Demo)
TTITLE2=Cuando Nadie Me Ve (Demo)
TTITLE3=Hay Un Universo De Pequeñas Cosas (Demo)
TTITLE4=Seremos Libres (Demo)
TTITLE5=Dale Al Aire (Bulerias) (Con Juan Habichuela Y Ketama)
TTITLE6=La Vida Es Un Espejo (Tangos) (Con Pepe De Lucia)
TTITLE7=Cai (Con Niña Pastori)
TTITLE8=Adoro (Con Armando Manzanero)
TTITLE9=The Hardest Day (Con The Corrs)
TTITLE10=Eso (Con Omara Portuondo)
TTITLE11=Grande (Con Paolo Vallesi)
TTITLE12=Me Vesti De Silencio (Con Moncho)
TTITLE13=Cancion De Amor Para Olvidarte
EXTD=YEAR: 2004
EXTT0=
EXTT1=
EXTT2=
EXTT3=
EXTT4=
EXTT5=
EXTT6=
EXTT7=
EXTT8=
EXTT9=
EXTT10=
EXTT11=
EXTT12=
EXTT13=
PLAYORDER=
